<svg width="64" height="64" viewBox="0 0 115 115" fill="none" xmlns="http://www.w3.org/2000/svg">
<path d="M73.6719 44.9219C73.6719 39.9805 69.6289 35.9375 64.6875 35.9375H50.3125H49.2344C44.7422 35.9375 40.8789 39.3516 40.3398 43.8437L36.8359 71.875H46.7188V111.406H68.2812V71.875C71.2461 71.875 73.6719 69.4492 73.6719 66.4844V44.9219Z" fill="white"/>
<path d="M33.2422 41.3281H18.8672C13.9258 41.3281 9.88281 45.3711 9.88281 50.3125V70.0781C9.88281 73.4023 12.2187 76.1875 15.2734 76.9961V106.016C15.2734 108.98 17.6992 111.406 20.6641 111.406C23.6289 111.406 28.4805 111.406 31.4453 111.406C34.4102 111.406 36.8359 108.98 36.8359 106.016V77.2656H42.2266V50.3125C42.2266 45.3711 38.1836 41.3281 33.2422 41.3281ZM26.0547 14.375C23.6719 14.375 21.3867 15.3216 19.7018 17.0065C18.0169 18.6914 17.0703 20.9766 17.0703 23.3594C17.0703 25.7422 18.0169 28.0274 19.7018 29.7123C21.3867 31.3972 23.6719 32.3438 26.0547 32.3438C28.4375 32.3438 30.7227 31.3972 32.4076 29.7123C34.0925 28.0274 35.0391 25.7422 35.0391 23.3594C35.0391 20.9766 34.0925 18.6914 32.4076 17.0065C30.7227 15.3216 28.4375 14.375 26.0547 14.375V14.375ZM96.1328 41.3281H81.7578C76.8164 41.3281 72.7734 45.3711 72.7734 50.3125V70.0781C72.7734 73.4023 75.1094 76.1875 78.1641 76.9961V105.746C78.1641 108.711 80.4102 111.316 83.375 111.316C86.4297 111.406 91.4609 111.406 94.5156 111.316C97.4805 111.227 99.7266 108.621 99.7266 105.746V77.2656C102.691 77.2656 105.117 74.8398 105.117 71.875V50.3125C105.117 45.3711 101.074 41.3281 96.1328 41.3281ZM88.9453 14.375C86.5625 14.375 84.2773 15.3216 82.5924 17.0065C80.9075 18.6914 79.9609 20.9766 79.9609 23.3594C79.9609 25.7422 80.9075 28.0274 82.5924 29.7123C84.2773 31.3972 86.5625 32.3438 88.9453 32.3438C91.3281 32.3438 93.6133 31.3972 95.2982 29.7123C96.9831 28.0274 97.9297 25.7422 97.9297 23.3594C97.9297 20.9766 96.9831 18.6914 95.2982 17.0065C93.6133 15.3216 91.3281 14.375 88.9453 14.375Z" fill="white"/>
<path d="M15.2734 114.102C13.7461 114.102 12.5781 112.934 12.5781 111.406V78.8828C9.34375 77.2656 7.1875 73.8516 7.1875 70.0781V50.3125C7.1875 43.8438 12.3984 38.6328 18.8672 38.6328H33.2422C34.7695 38.6328 35.9375 39.8008 35.9375 41.3281C35.9375 42.8555 34.7695 44.0234 33.2422 44.0234H18.8672C15.3633 44.0234 12.5781 46.8086 12.5781 50.3125V70.0781C12.5781 72.1445 13.9258 73.9414 15.9023 74.3906C17.0703 74.6602 17.9688 75.7383 17.9688 76.9961V111.406C17.9688 112.934 16.8008 114.102 15.2734 114.102ZM26.0547 35.0391C19.5859 35.0391 14.375 29.8281 14.375 23.3594C14.375 16.8906 19.5859 11.6797 26.0547 11.6797C32.5234 11.6797 37.7344 16.8906 37.7344 23.3594C37.7344 29.8281 32.5234 35.0391 26.0547 35.0391ZM26.0547 17.0703C22.5508 17.0703 19.7656 19.8555 19.7656 23.3594C19.7656 26.8633 22.5508 29.6484 26.0547 29.6484C29.5586 29.6484 32.3438 26.8633 32.3438 23.3594C32.3438 19.8555 29.5586 17.0703 26.0547 17.0703ZM78.1641 114.102C76.6367 114.102 75.4688 112.934 75.4688 111.406V85.9805C75.4688 84.4531 76.6367 83.2852 78.1641 83.2852C79.6914 83.2852 80.8594 84.4531 80.8594 85.9805V111.406C80.8594 112.934 79.6914 114.102 78.1641 114.102ZM99.7266 113.832C98.1992 113.832 97.0312 112.664 97.0312 111.137V77.2656C97.0312 75.7383 98.1992 74.5703 99.7266 74.5703C101.254 74.5703 102.422 73.4023 102.422 71.875V50.3125C102.422 46.8086 99.6367 44.0234 96.1328 44.0234H81.7578C80.2305 44.0234 79.0625 42.8555 79.0625 41.3281C79.0625 39.8008 80.2305 38.6328 81.7578 38.6328H96.1328C102.602 38.6328 107.812 43.8438 107.812 50.3125V71.875C107.812 75.3789 105.566 78.3438 102.422 79.5117V111.227C102.422 112.664 101.254 113.832 99.7266 113.832ZM88.9453 35.0391C82.4766 35.0391 77.2656 29.8281 77.2656 23.3594C77.2656 16.8906 82.4766 11.6797 88.9453 11.6797C95.4141 11.6797 100.625 16.8906 100.625 23.3594C100.625 29.8281 95.4141 35.0391 88.9453 35.0391ZM88.9453 17.0703C85.4414 17.0703 82.6562 19.8555 82.6562 23.3594C82.6562 26.8633 85.4414 29.6484 88.9453 29.6484C92.4492 29.6484 95.2344 26.8633 95.2344 23.3594C95.2344 19.8555 92.4492 17.0703 88.9453 17.0703Z" fill="#71C2FF"/>
<path d="M36.8359 96.1328C35.3086 96.1328 34.1406 94.9648 34.1406 93.4375V80.8594C34.1406 79.332 35.3086 78.1641 36.8359 78.1641C38.3633 78.1641 39.5312 79.332 39.5312 80.8594V93.4375C39.5312 94.9648 38.3633 96.1328 36.8359 96.1328Z" fill="#444B54"/>
<path d="M57.5 8.98438C55.1172 8.98438 52.832 9.93094 51.1471 11.6158C49.4622 13.3007 48.5156 15.5859 48.5156 17.9688C48.5156 20.3516 49.4622 22.6368 51.1471 24.3217C52.832 26.0066 55.1172 26.9531 57.5 26.9531C59.8828 26.9531 62.168 26.0066 63.8529 24.3217C65.5378 22.6368 66.4844 20.3516 66.4844 17.9688C66.4844 15.5859 65.5378 13.3007 63.8529 11.6158C62.168 9.93094 59.8828 8.98438 57.5 8.98438Z" fill="white"/>
<path d="M57.5 29.6484C51.0313 29.6484 45.8203 24.4375 45.8203 17.9688C45.8203 11.5 51.0313 6.28906 57.5 6.28906C63.9687 6.28906 69.1797 11.5 69.1797 17.9688C69.1797 24.4375 63.9687 29.6484 57.5 29.6484ZM57.5 11.6797C53.9961 11.6797 51.2109 14.4648 51.2109 17.9688C51.2109 21.4727 53.9961 24.2578 57.5 24.2578C61.0039 24.2578 63.7891 21.4727 63.7891 17.9688C63.7891 14.4648 61.0039 11.6797 57.5 11.6797ZM85.3516 108.711H70.9766V77.9844V77.2656V74.1211C74.1211 73.043 76.3672 69.9883 76.3672 66.4844V50.3125C76.3672 46.2695 75.5586 33.2422 64.6875 33.2422H49.2344C43.3945 33.2422 38.3633 37.6445 37.6445 43.4844L34.1406 71.5156C33.9609 72.9531 35.0391 74.3008 36.4766 74.4805C37.9141 74.6602 39.2617 73.582 39.4414 72.1445L42.9453 44.1133C43.3047 40.9687 46 38.6328 49.1445 38.6328H64.6875C70.168 38.6328 70.9766 45.9102 70.9766 50.3125V66.4844C70.9766 68.0117 69.8086 69.1797 68.2812 69.1797C66.7539 69.1797 65.5859 70.3477 65.5859 71.875V77.2656V77.9844V108.711H60.1953V77.2656C60.1953 75.7383 59.0273 74.5703 57.5 74.5703C55.9727 74.5703 54.8047 75.7383 54.8047 77.2656V108.711H49.4141V71.875C49.4141 70.3477 48.2461 69.1797 46.7188 69.1797C45.1914 69.1797 44.0234 70.3477 44.0234 71.875V108.711H29.6484C28.1211 108.711 26.9531 109.879 26.9531 111.406C26.9531 112.934 28.1211 114.102 29.6484 114.102H85.3516C86.8789 114.102 88.0469 112.934 88.0469 111.406C88.0469 109.879 86.8789 108.711 85.3516 108.711Z" fill="#444B54"/>
</svg>
