<svg width="410" height="608" viewBox="0 0 410 608" fill="none" xmlns="http://www.w3.org/2000/svg">
<path fill-rule="evenodd" clip-rule="evenodd" d="M182.124 11.2281C161.652 5.74257 140.614 17.8763 135.133 38.3295L126.006 72.3934C125.072 72.1433 124.113 72.6973 123.862 73.6309L119.22 90.9566C118.97 91.8901 119.524 92.8497 120.457 93.0999L115.702 110.846C114.769 110.596 113.809 111.15 113.559 112.083L103.935 148C103.685 148.933 104.239 149.893 105.173 150.143L102.531 160.003C101.597 159.753 100.638 160.307 100.388 161.24L90.7639 197.156C90.5137 198.09 91.0677 199.05 92.0013 199.3L11.6196 499.288C6.13921 519.742 18.2924 540.769 38.7645 546.254L227.63 596.861C248.102 602.346 269.141 590.213 274.621 569.759L358.478 256.8C359.132 256.689 359.693 256.209 359.876 255.527L375.727 196.371C375.91 195.688 375.663 194.992 375.153 194.569L398.135 108.801C403.615 88.3473 391.462 67.3199 370.99 61.8344L182.124 11.2281Z" fill="black"/>
<path fill-rule="evenodd" clip-rule="evenodd" d="M366.899 65.8374L182.679 16.4761C163.57 11.3556 143.931 22.6819 138.815 41.7742L16.7192 497.442C11.6034 516.534 22.9479 536.162 42.0578 541.283L226.277 590.644C245.387 595.765 265.026 584.438 270.141 565.346L392.237 109.678C397.353 90.5862 386.008 70.9579 366.899 65.8374ZM206.497 37.1051C207.012 34.9887 205.742 32.8474 203.636 32.2831L179.702 25.8689C166.586 22.3544 153.107 30.1283 149.596 43.2323L26.7096 501.851C23.1984 514.955 30.9848 528.427 44.1009 531.942L229.883 581.722C242.999 585.236 256.478 577.462 259.99 564.358L382.877 105.739C386.388 92.6351 378.601 79.1633 365.485 75.6492L340.982 69.085C338.901 68.5274 336.751 69.7117 336.112 71.7677C333.047 81.6401 327.407 85.3983 319.082 83.1676C316.944 82.5947 313.487 81.6772 307.802 80.1728C306.716 79.8855 303.53 79.0429 300.089 78.1329L300.059 78.1251C296.174 77.0975 291.97 75.9857 290.103 75.4915C281.608 73.2438 274.464 71.3506 267.617 69.5311C241.362 62.5539 223.945 57.847 217.026 55.8153C207.606 53.0491 204.121 46.8602 206.497 37.1051ZM254.888 52.8832C255.201 51.7163 256.4 51.0239 257.567 51.3365L283.769 58.3573C284.936 58.67 285.628 59.8694 285.316 61.0362C285.003 62.203 283.804 62.8955 282.637 62.5828L256.435 55.562C255.268 55.2494 254.575 54.05 254.888 52.8832ZM303.488 65.9054C302.862 68.239 300.463 69.6239 298.129 68.9985C295.795 68.3731 294.41 65.9743 295.035 63.6406C295.661 61.307 298.06 59.9221 300.394 60.5475C302.728 61.1729 304.113 63.5717 303.488 65.9054Z" fill="white"/>
<g clip-path="url(#clip0)">
<path fill-rule="evenodd" clip-rule="evenodd" d="M203.408 32.2369C205.515 32.8014 206.784 34.9461 206.268 37.0668C203.887 46.8414 207.37 53.0404 216.792 55.8075C223.712 57.8398 241.132 62.5476 267.392 69.5261C274.24 71.3458 281.385 73.2394 289.882 75.4874C293.41 76.4209 305.269 79.5569 307.584 80.1694C313.27 81.674 316.728 82.5917 318.866 83.1647C327.193 85.3958 332.836 81.628 335.907 71.7355C336.547 69.6753 338.698 68.4878 340.78 69.0455L365.287 75.6109C378.405 79.1257 386.188 92.6193 382.67 105.75L259.536 565.291C256.018 578.421 242.531 586.216 229.412 582.701L43.5966 532.911C30.478 529.396 22.6955 515.902 26.2138 502.772L149.347 43.2315C152.865 30.1011 166.352 22.3064 179.47 25.8215L203.408 32.2369Z" fill="white" stroke="black" stroke-width="1.01078"/>
<mask id="mask0" mask-type="alpha" maskUnits="userSpaceOnUse" x="19" y="18" width="371" height="572">
<path fill-rule="evenodd" clip-rule="evenodd" d="M203.408 32.2369C205.515 32.8014 206.784 34.9461 206.268 37.0668C203.887 46.8414 207.37 53.0404 216.792 55.8075C223.712 57.8398 241.132 62.5476 267.392 69.5261C274.24 71.3458 281.385 73.2394 289.882 75.4874C293.41 76.4209 305.269 79.5569 307.584 80.1694C313.27 81.674 316.728 82.5917 318.866 83.1647C327.193 85.3958 332.836 81.628 335.907 71.7355C336.547 69.6753 338.698 68.4878 340.78 69.0455L365.287 75.6109C378.405 79.1257 386.188 92.6193 382.67 105.75L259.536 565.291C256.018 578.421 242.531 586.216 229.412 582.701L43.5966 532.911C30.478 529.396 22.6955 515.902 26.2138 502.772L149.347 43.2315C152.865 30.1011 166.352 22.3064 179.47 25.8215L203.408 32.2369Z" fill="white" stroke="white" stroke-width="1.01078"/>
</mask>
<g mask="url(#mask0)">
<rect x="75.6206" y="527.021" width="134" height="5" rx="2.5" transform="rotate(15 75.6206 527.021)" fill="black"/>
<path d="M102.935 292.287L111.606 259.925L133.629 265.826L131.952 272.085L116.977 268.072L115.2 274.702L128.043 278.144L126.378 284.356L113.535 280.915L111.659 287.916L126.635 291.929L124.958 298.188L102.935 292.287ZM151.034 305.175L150.778 296.858L139.975 293.963L135.595 301.038L128.455 299.125L147.79 269.62L156.507 271.956L158.36 307.138L151.034 305.175ZM150.341 277.161L150.109 277.099L143.247 288.429L150.665 290.417L150.341 277.161ZM173.167 311.702C170.323 310.94 168.04 309.815 166.319 308.326C164.606 306.807 163.261 305.089 162.284 303.17L168.175 299.73C169.707 302.791 172.08 304.752 175.295 305.613C177.026 306.077 178.404 306.065 179.429 305.578C180.454 305.091 181.124 304.26 181.439 303.085C181.679 302.189 181.63 301.381 181.293 300.661C180.964 299.91 180.071 299.224 178.615 298.602L175.527 297.327C172.212 295.975 169.971 294.265 168.802 292.196C167.665 290.135 167.461 287.745 168.19 285.025C168.579 283.572 169.213 282.317 170.093 281.261C170.972 280.205 172.038 279.38 173.289 278.788C174.572 278.204 176.018 277.879 177.626 277.813C179.273 277.724 181.054 277.937 182.971 278.45C185.413 279.105 187.457 280.067 189.105 281.336C190.752 282.606 192.042 284.161 192.973 286L187.023 289.475C186.491 288.371 185.743 287.392 184.779 286.538C183.855 285.661 182.558 284.999 180.889 284.551C179.312 284.129 178.063 284.092 177.141 284.442C176.22 284.791 175.626 285.46 175.361 286.449C175.063 287.562 175.141 288.444 175.596 289.096C176.082 289.757 176.976 290.377 178.278 290.958L181.34 292.325C184.538 293.745 186.733 295.443 187.926 297.419C189.128 299.364 189.351 301.743 188.598 304.556C188.184 306.102 187.525 307.449 186.62 308.598C185.716 309.747 184.599 310.641 183.269 311.278C181.969 311.924 180.461 312.298 178.744 312.401C177.035 312.473 175.176 312.24 173.167 311.702ZM197.842 317.717L201.233 305.06L195.432 282.386L203.314 284.498L206.815 299.25L206.908 299.275L217.038 288.175L224.688 290.225L208.339 306.914L204.935 319.618L197.842 317.717Z" fill="#2A2F36"/>
<path d="M228.695 291.298L244.412 295.51C247.101 296.23 248.985 297.547 250.063 299.459C251.171 301.379 251.39 303.591 250.719 306.095C250.388 307.331 249.937 308.337 249.365 309.111C248.824 309.894 248.2 310.489 247.495 310.896C246.82 311.312 246.075 311.559 245.259 311.638C244.481 311.695 243.671 311.627 242.829 311.435L242.754 311.713C243.527 311.92 244.293 312.274 245.053 312.776C245.844 313.286 246.512 313.946 247.057 314.754C247.611 315.532 247.991 316.462 248.198 317.545C248.436 318.635 248.369 319.876 247.996 321.267C247.656 322.534 247.117 323.682 246.378 324.709C245.678 325.715 244.845 326.535 243.88 327.171C242.914 327.807 241.855 328.235 240.703 328.456C239.558 328.647 238.383 328.58 237.178 328.257L220.023 323.661L228.695 291.298ZM228.661 319.614L236.774 321.788C237.702 322.037 238.494 321.984 239.152 321.631C239.85 321.254 240.322 320.602 240.571 319.675L240.993 318.099C241.242 317.171 241.154 316.386 240.73 315.742C240.345 315.076 239.689 314.619 238.762 314.37L230.648 312.196L228.661 319.614ZM232.189 306.447L239.19 308.323C240.117 308.571 240.914 308.503 241.58 308.118C242.247 307.734 242.704 307.078 242.952 306.151L243.325 304.76C243.574 303.832 243.505 303.036 243.121 302.369C242.736 301.703 242.08 301.246 241.153 300.997L234.152 299.121L232.189 306.447ZM249.696 331.612L251.199 326.001L255.372 327.12L261.037 305.977L256.864 304.859L258.367 299.249L273.76 303.374L272.257 308.984L268.084 307.866L262.419 329.008L266.592 330.126L265.089 335.736L249.696 331.612ZM270.961 337.309L279.632 304.947L294.932 309.047C296.447 309.452 297.737 310.08 298.801 310.928C299.874 311.746 300.708 312.714 301.302 313.834C301.928 314.963 302.298 316.238 302.414 317.661C302.538 319.052 302.397 320.505 301.991 322.02C301.577 323.565 300.968 324.909 300.165 326.052C299.362 327.196 298.408 328.099 297.302 328.764C296.227 329.437 295.017 329.874 293.67 330.077C292.332 330.248 290.906 330.131 289.392 329.725L281.139 327.514L278.008 339.198L270.961 337.309ZM282.779 321.394L290.197 323.381C291.248 323.663 292.137 323.62 292.865 323.252C293.633 322.861 294.157 322.14 294.439 321.089L294.985 319.049C295.267 317.998 295.169 317.127 294.692 316.436C294.253 315.722 293.509 315.225 292.458 314.943L285.04 312.955L282.779 321.394Z" fill="#FFC432"/>
</g>
</g>
<defs>
<clipPath id="clip0">
<rect x="155.717" y="19.4569" width="241.554" height="524.978" transform="rotate(15 155.717 19.4569)" fill="white"/>
</clipPath>
</defs>
</svg>
