<svg width="64" height="64" viewBox="0 0 64 64" fill="none" xmlns="http://www.w3.org/2000/svg">
<path d="M61.95 43.7C61.05 41.7 58.6 40.9 56.6 41.75L54.85 42.5L54.5 41.8C53.65 39.75 51.3 38.8 49.25 39.7L38.85 44.25C38.45 43.6 37.85 43.1 37.1 42.75L24.2 36.95C19.2 34.7 13.35 35.4 9 38.75L7.05 40.25L6.55 40.75H2C1.15 40.75 0.5 41.4 0.5 42.25V58.25H6.5V55.65L6.95 55.4C8.6 54.45 10.65 54.4 12.35 55.25L23.45 60.8C26.05 62.05 29.05 62.15 31.75 61L59.95 49.1C61.95 48.2 62.9 45.75 61.95 43.7Z" fill="white"/>
<path d="M63.4 43.25C62.85 41.9 61.75 40.85 60.4 40.3C59.05 39.75 57.55 39.75 56.2 40.35L55.6 40.6C55 39.55 54.05 38.75 52.95 38.3C51.6 37.75 50.1 37.75 48.75 38.35L42.95 40.8C42.2 41.1 41.85 42 42.15 42.75C42.4 43.3 42.95 43.65 43.55 43.65C43.75 43.65 43.95 43.6 44.15 43.55L49.95 41.1C50.55 40.85 51.25 40.85 51.85 41.1C52.25 41.25 52.55 41.5 52.8 41.8L41.05 46.8C41.2 44.55 40 42.35 37.8 41.4L24.8 35.6C19.3 33.15 12.9 33.9 8.1 37.55L6.15 39.05C6.1 39.1 6.05 39.15 6 39.2L5.5 39.7C5.2 40 5.05 40.35 5.05 40.75V56.75H2C1.15 56.75 0.5 57.4 0.5 58.25C0.5 59.1 1.15 59.75 2 59.75H6.5C7.35 59.75 8 59.1 8 58.25V41.35L9.9 39.9C13.85 36.9 19.05 36.3 23.6 38.3L36.5 44.1C37.1 44.35 37.6 44.85 37.8 45.5C38.05 46.1 38 46.8 37.75 47.4C37.5 48 37 48.45 36.4 48.7C35.8 48.95 35.1 48.9 34.5 48.65L24.5 44.2C23.75 43.85 22.85 44.2 22.5 44.95C22.15 45.7 22.5 46.6 23.25 46.95L33.25 51.4C34.6 52 36.1 52.05 37.45 51.5C37.65 51.45 37.85 51.35 38 51.25C38.1 51.25 38.15 51.2 38.2 51.2L57.3 43.1C57.9 42.85 58.6 42.85 59.2 43.1C59.8 43.35 60.3 43.85 60.55 44.45C60.8 45.05 60.8 45.75 60.55 46.35C60.3 46.95 59.8 47.45 59.2 47.7L31 59.6C28.75 60.55 26.15 60.5 23.95 59.4L12.05 53.6C11.3 53.25 10.4 53.55 10.05 54.3C9.7 55.05 10 55.95 10.75 56.3L22.65 62.1C24.25 62.9 25.95 63.25 27.7 63.25C29.2 63.25 30.75 62.95 32.2 62.35L60.4 50.45C61.75 49.9 62.8 48.8 63.35 47.45C63.95 46.1 63.95 44.6 63.4 43.25ZM54.05 3.5C53.2 3.5 52.55 2.85 52.55 2C52.55 1.15 53.25 0.5 54.05 0.5C54.85 0.5 55.55 1.15 55.55 2C55.6 2.8 54.9 3.5 54.05 3.5C54.1 3.5 54.1 3.5 54.05 3.5ZM54.05 0.5V0.8V0.5ZM47.65 3.15C47.3 2.4 46.4 2.1 45.65 2.45C39.05 5.7 35.1 12.3 35.05 19.4L33.05 17.4C32.45 16.8 31.5 16.8 30.95 17.4C30.35 18 30.35 18.95 30.95 19.5L35.95 24.5C36.25 24.8 36.6 24.95 37 24.95C37.25 24.95 37.5 24.9 37.75 24.75C37.85 24.7 38 24.6 38.05 24.5L43.05 19.5C43.65 18.9 43.65 17.95 43.05 17.4C42.45 16.8 41.5 16.8 40.95 17.4L38.05 20.3C37.75 14 41.15 8.05 46.95 5.15C47.7 4.8 48 3.9 47.65 3.15Z" fill="#444B54"/>
</svg>
