<svg width="64" height="64" viewBox="0 0 64 64" fill="none" xmlns="http://www.w3.org/2000/svg">
<path d="M27.5 20.5V20.9C25.75 21 24.05 21.65 22.65 22.85L11.05 33H3V53.5H63.5V20.5H27.5Z" fill="white"/>
<path d="M46.95 28.6C46.4 27.25 45.35 26.15 44 25.6L31.8 20.2C28.45 18.7 24.45 19.3 21.7 21.75L10.5 31.5H3C2.15 31.5 1.5 32.15 1.5 33V53.5C1.5 54.35 2.15 55 3 55H10.5H22.5C23.35 55 24 54.35 24 53.5C24 52.65 23.35 52 22.5 52H12V34.2L23.65 24C25.55 22.35 28.25 21.95 30.55 22.95L42.8 28.4C43.4 28.65 43.9 29.15 44.15 29.75C44.4 30.35 44.4 31.05 44.15 31.65C43.9 32.25 43.4 32.75 42.8 33C42.2 33.25 41.5 33.25 40.9 33L31.65 29.05C31.25 28.9 30.8 28.9 30.4 29.05C30 29.25 29.7 29.55 29.6 30L29.5 30.3C28.15 34.85 24.4 38.2 19.75 39C18.95 39.15 18.4 39.9 18.55 40.75C18.7 41.5 19.3 42 20.05 42C20.15 42 20.2 42 20.3 42C25.65 41.05 30 37.45 31.95 32.45L39.7 35.75C41.05 36.3 42.55 36.35 43.9 35.8C45.25 35.25 46.35 34.2 46.9 32.85C47.5 31.5 47.5 30 46.95 28.6ZM4.5 34.5H9V52H4.5V34.5Z" fill="#444B54"/>
<path d="M62 55H32.5C28.9 55 26 52.1 26 48.5V45C26 44.15 26.65 43.5 27.5 43.5C28.35 43.5 29 44.15 29 45V48.5C29 50.45 30.55 52 32.5 52H62C62.85 52 63.5 52.65 63.5 53.5C63.5 54.35 62.85 55 62 55ZM62 22H47C46.15 22 45.5 21.35 45.5 20.5C45.5 19.65 46.15 19 47 19H62C62.85 19 63.5 19.65 63.5 20.5C63.5 21.35 62.85 22 62 22Z" fill="#444B54"/>
<path d="M55.5 29C53.3783 29 51.3434 29.8429 49.8431 31.3431C48.3429 32.8434 47.5 34.8783 47.5 37C47.5 39.1217 48.3429 41.1566 49.8431 42.6569C51.3434 44.1571 53.3783 45 55.5 45C57.6217 45 59.6566 44.1571 61.1569 42.6569C62.6571 41.1566 63.5 39.1217 63.5 37C63.5 34.8783 62.6571 32.8434 61.1569 31.3431C59.6566 29.8429 57.6217 29 55.5 29Z" fill="#71C2FF"/>
</svg>
